<?xml version="1.0" standalone="no"?>
<!DOCTYPE svg PUBLIC "-//W3C//DTD SVG 20010904//EN"
 "http://www.w3.org/TR/2001/REC-SVG-20010904/DTD/svg10.dtd">
<svg version="1.0" xmlns="http://www.w3.org/2000/svg"
 width="2979.000000pt" height="1683.000000pt" viewBox="0 0 2979.000000 1683.000000"
 preserveAspectRatio="xMidYMid meet">
<metadata>
Created by potrace 1.16, written by Peter Selinger 2001-2019
</metadata>
<g transform="translate(0.000000,1683.000000) scale(0.100000,-0.100000)"
fill="#000000" stroke="none">
<path d="M397 16432 l-397 -397 2 -1233 3 -1232 1490 1488 c820 819 1553 1552
1630 1630 l140 142 -1235 0 -1235 0 -398 -398z"/>
<path d="M3992 15117 c-941 -941 -1712 -1715 -1712 -1719 0 -4 554 -7 1230 -8
l1231 0 1616 1617 c889 890 1661 1664 1716 1721 l100 102 -1234 0 -1234 0
-1713 -1713z"/>
<path d="M8908 15119 c-940 -940 -1708 -1714 -1708 -1719 0 -6 474 -10 1228
-10 l1227 0 1720 1720 1720 1720 -1240 0 -1240 0 -1707 -1711z"/>
<path d="M13812 15116 c-941 -942 -1708 -1716 -1705 -1720 3 -3 558 -6 1232
-6 l1226 0 1720 1720 1720 1720 -1241 0 -1240 0 -1712 -1714z"/>
<path d="M18732 15117 c-941 -941 -1712 -1715 -1712 -1719 0 -4 552 -8 1228
-8 l1227 0 1720 1720 1720 1720 -1235 0 -1235 0 -1713 -1713z"/>
<path d="M23642 15117 c-941 -941 -1712 -1715 -1712 -1719 0 -5 553 -8 1228
-8 l1229 0 1714 1716 c943 943 1716 1717 1718 1720 2 2 -551 4 -1230 4 l-1234
0 -1713 -1713z"/>
<path d="M28307 14872 c-807 -807 -1467 -1470 -1467 -1475 0 -4 552 -7 1228
-7 l1227 0 248 248 247 247 0 1227 c0 676 -3 1228 -7 1228 -5 -1 -668 -661
-1476 -1468z"/>
<path d="M9010 11208 c0 -1582 2 -1695 41 -1902 25 -135 54 -212 123 -330 121
-205 230 -276 495 -324 144 -25 757 -25 886 1 189 39 320 105 402 206 58 71
137 233 163 334 24 95 46 251 60 413 6 73 10 715 10 1628 l0 1506 -417 0 -418
0 -5 -1532 -5 -1533 -25 -50 c-36 -72 -68 -85 -203 -85 -112 0 -158 11 -188
46 -45 53 -44 2 -49 1622 l-5 1532 -433 3 -432 2 0 -1537z"/>
<path d="M11510 10720 l0 -2025 382 2 383 3 3 1080 c2 854 5 1080 15 1080 12
0 20 -17 157 -330 44 -102 96 -219 115 -260 38 -85 273 -617 375 -850 38 -85
103 -234 145 -330 43 -96 99 -224 125 -283 l46 -108 222 -2 222 -2 0 2025 0
2025 -385 0 -385 0 0 -702 c0 -586 -2 -703 -14 -703 -13 0 -33 48 -402 965
l-172 430 -416 5 -416 5 0 -2025z"/>
<path d="M14052 10722 l3 -2023 673 1 c708 0 811 5 967 45 176 44 301 134 387
277 151 249 188 588 188 1703 0 1116 -38 1446 -192 1703 -66 108 -193 206
-328 251 -162 53 -182 54 -968 60 l-732 6 2 -2023z m1243 1146 c17 -9 38 -25
48 -36 52 -57 66 -290 66 -1092 0 -791 -13 -1005 -65 -1086 -29 -43 -84 -54
-272 -57 l-172 -2 0 1149 0 1148 183 -4 c142 -3 189 -7 212 -20z"/>
<path d="M16564 12735 c-2 -5 -3 -916 -2 -2023 l3 -2012 895 0 895 0 3 450 2
450 -475 0 -475 0 0 380 0 380 468 0 467 -1 2 411 2 410 -470 0 -469 0 0 350
0 350 475 0 475 0 0 430 0 430 -896 2 c-591 2 -898 0 -900 -7z"/>
<path d="M18690 10720 l0 -2025 420 2 421 3 -1 785 0 785 80 0 c45 0 95 -6
113 -13 66 -28 95 -143 137 -527 58 -541 127 -1000 153 -1026 3 -3 828 -7 904
-4 1 0 -3 15 -8 33 -17 59 -48 268 -84 577 -65 552 -103 781 -165 987 -42 143
-74 207 -125 256 -25 24 -45 50 -45 58 0 8 26 31 58 51 104 67 139 104 182
191 79 160 106 397 97 857 -4 221 -10 309 -25 390 -67 365 -224 541 -548 616
-72 17 -149 19 -822 24 l-742 5 0 -2025z m1147 1169 c45 -17 91 -68 110 -123
27 -77 26 -494 0 -581 -41 -131 -82 -154 -273 -155 -111 0 -133 2 -138 16 -3
9 -6 204 -6 435 l0 419 139 0 c77 0 152 -5 168 -11z"/>
<path d="M2130 8264 c-19 -2 -71 -9 -115 -15 -251 -33 -409 -116 -508 -266
-180 -273 -217 -573 -217 -1763 0 -1162 34 -1497 178 -1774 78 -149 197 -249
357 -299 202 -64 643 -84 915 -41 210 33 352 97 466 209 140 138 200 297 235
615 14 127 18 632 5 723 l-7 57 -390 0 -389 0 0 -102 c-1 -260 -31 -487 -75
-554 -28 -43 -78 -58 -195 -58 -207 1 -228 35 -251 414 -14 240 -6 1648 10
1770 26 193 56 237 168 249 85 10 188 -1 230 -23 66 -34 83 -117 92 -449 l6
-238 394 1 c217 0 397 2 399 5 2 2 5 136 5 297 3 524 -38 762 -163 946 -102
149 -257 233 -515 278 -86 15 -547 28 -635 18z"/>
<path d="M4535 8264 c-407 -40 -568 -147 -703 -464 -92 -217 -119 -506 -129
-1375 -8 -846 13 -1381 67 -1659 55 -282 189 -491 370 -579 152 -75 325 -101
665 -101 252 0 370 11 501 44 86 22 196 74 255 121 82 65 178 225 229 379 74
230 100 624 100 1535 0 1180 -37 1505 -201 1782 -96 161 -256 256 -500 299
-90 15 -550 28 -654 18z m372 -840 c40 -6 88 -60 103 -113 28 -105 32 -216 37
-945 6 -963 -6 -1227 -61 -1310 -30 -47 -71 -60 -186 -60 -254 0 -255 9 -254
1239 0 656 3 813 16 928 18 148 41 215 84 244 43 28 148 35 261 17z"/>
<path d="M9357 8258 c-411 -42 -627 -231 -691 -603 -37 -214 -42 -514 -15
-875 20 -274 57 -392 163 -522 93 -115 180 -167 627 -381 301 -143 409 -242
438 -402 24 -127 7 -345 -32 -425 -29 -59 -83 -89 -175 -97 -84 -7 -165 10
-208 42 -23 18 -39 44 -55 92 -21 61 -24 87 -24 245 l0 178 -352 0 -351 0 -6
-27 c-24 -123 -29 -188 -30 -438 -1 -305 6 -372 54 -507 65 -184 169 -291 360
-369 167 -67 449 -99 713 -80 330 24 501 84 643 225 188 188 256 464 256 1036
0 517 -56 754 -219 915 -100 99 -196 160 -383 245 -245 110 -356 164 -438 213
-164 96 -204 145 -222 274 -14 93 -8 260 10 325 15 51 53 94 98 109 20 7 75
13 122 13 71 0 94 -4 135 -24 45 -22 53 -32 74 -85 22 -55 24 -75 25 -227 l1
-168 351 0 352 0 11 47 c33 129 38 480 11 663 -59 389 -261 565 -699 610 -121
12 -419 11 -544 -2z"/>
<path d="M18820 8264 c-103 -9 -242 -35 -317 -59 -234 -74 -387 -274 -452
-595 -57 -277 -75 -719 -68 -1615 6 -695 17 -912 58 -1170 25 -156 55 -253
109 -359 116 -227 261 -318 571 -360 309 -42 693 -25 894 41 120 39 198 86
286 173 158 157 210 314 240 725 11 156 7 634 -6 655 -4 6 -149 10 -394 10
l-388 0 -6 -207 c-8 -290 -33 -421 -89 -468 -42 -36 -126 -50 -229 -38 -165
19 -179 53 -200 483 -14 296 -6 1540 11 1685 13 117 34 191 63 222 38 42 147
61 250 43 151 -27 166 -64 175 -453 l7 -258 395 0 395 0 6 93 c17 238 4 592
-27 792 -44 279 -158 457 -354 553 -162 80 -297 103 -630 107 -140 2 -275 2
-300 0z"/>
<path d="M24620 8260 c-178 -18 -346 -73 -436 -141 -92 -70 -190 -223 -244
-379 -78 -228 -110 -683 -110 -1565 0 -708 23 -1165 69 -1402 56 -288 189
-497 371 -586 152 -75 321 -100 665 -101 253 0 382 12 505 45 229 62 354 180
454 429 98 246 126 601 126 1635 0 1118 -30 1418 -172 1700 -99 196 -257 302
-524 351 -104 19 -566 28 -704 14z m443 -846 c105 -55 116 -165 116 -1204 1
-686 -8 -969 -33 -1072 -28 -118 -64 -142 -216 -142 -242 0 -247 19 -257 989
-6 613 7 1128 31 1266 23 126 52 163 143 179 65 12 178 3 216 -16z"/>
<path d="M6180 6175 l0 -2025 385 0 385 0 0 1085 c0 915 2 1085 14 1085 7 0
19 -15 26 -32 13 -32 91 -212 110 -253 13 -28 295 -668 430 -975 62 -140 163
-370 225 -510 62 -140 126 -286 143 -325 l31 -70 220 0 221 0 3 2023 2 2022
-387 0 -388 0 0 -700 c0 -581 -2 -700 -13 -700 -8 0 -21 17 -29 38 -8 20 -81
201 -163 402 -81 201 -199 493 -262 650 -63 157 -117 291 -120 298 -4 9 -97
12 -419 12 l-414 0 0 -2025z"/>
<path d="M10800 7770 l0 -430 315 0 315 0 0 -1595 0 -1595 425 0 425 0 0 1595
0 1595 315 2 315 3 3 428 2 427 -1057 0 -1058 0 0 -430z"/>
<path d="M13160 6175 l0 -2025 420 0 420 0 0 791 0 792 90 -5 c106 -6 133 -21
161 -83 20 -45 51 -215 69 -380 62 -571 115 -952 146 -1062 l15 -53 450 0
c511 0 462 -10 435 92 -15 58 -37 217 -91 668 -64 524 -118 799 -196 985 -25
60 -44 86 -81 119 -26 22 -48 46 -48 52 0 6 35 34 78 62 44 28 93 67 111 87
71 82 118 217 143 415 21 165 17 734 -5 880 -34 224 -90 361 -192 468 -75 80
-146 124 -257 163 -163 55 -228 59 -982 59 l-686 0 0 -2025z m1170 1159 c19
-11 45 -35 57 -54 42 -62 48 -102 48 -345 0 -252 -11 -315 -62 -384 -40 -52
-74 -61 -233 -61 l-140 0 0 436 0 436 148 -4 c126 -3 152 -6 182 -24z"/>
<path d="M15543 6588 c3 -1742 2 -1699 57 -1911 33 -129 127 -303 214 -395 93
-99 231 -154 461 -183 125 -16 596 -16 725 -1 326 39 487 150 605 416 59 133
101 391 113 696 4 96 6 808 4 1583 l-2 1407 -420 0 -420 0 -2 -1537 -3 -1538
-22 -45 c-29 -59 -61 -76 -153 -85 -106 -9 -197 7 -232 42 -60 61 -58 0 -58
1655 l0 1508 -435 0 -436 0 4 -1612z"/>
<path d="M20290 7770 l0 -430 320 0 320 0 0 -1595 0 -1595 420 0 420 0 0 1595
0 1595 320 0 320 0 0 430 0 430 -1060 0 -1060 0 0 -430z"/>
<path d="M22660 6175 l0 -2025 435 0 435 0 0 2025 0 2025 -435 0 -435 0 0
-2025z"/>
<path d="M26310 6175 l0 -2025 385 0 385 0 0 1085 c0 883 2 1085 13 1085 7 0
46 -75 87 -167 40 -93 107 -244 148 -338 41 -93 160 -363 265 -600 325 -736
383 -867 427 -968 l42 -97 222 2 221 3 3 2023 2 2022 -390 0 -390 0 0 -700 c0
-574 -2 -700 -13 -700 -8 0 -29 39 -49 88 -30 75 -383 950 -485 1202 -19 47
-37 91 -40 98 -4 9 -97 12 -419 12 l-414 0 0 -2025z"/>
<path d="M690 2745 l-690 -690 0 -1027 0 -1028 210 0 209 0 1711 1711 c940
942 1710 1715 1710 1718 0 3 -554 6 -1230 6 l-1230 0 -690 -690z"/>
<path d="M6315 3432 c-26 -3 -299 -271 -1745 -1717 l-1715 -1715 1235 0 1236
0 1709 1710 c941 940 1710 1712 1710 1715 0 6 -2373 13 -2430 7z"/>
<path d="M9491 1722 c-941 -942 -1711 -1715 -1711 -1717 0 -3 555 -5 1233 -5
l1232 0 1713 1713 c941 941 1712 1714 1712 1717 0 3 -555 5 -1234 5 l-1233 0
-1712 -1713z"/>
<path d="M14400 1724 c-940 -941 -1710 -1713 -1710 -1717 0 -4 555 -7 1233 -7
l1232 0 1715 1715 c943 943 1710 1715 1705 1715 -6 0 -562 1 -1237 3 l-1228 2
-1710 -1711z"/>
<path d="M19315 1720 l-1715 -1715 1233 -3 1232 -2 1708 1709 c939 940 1707
1713 1707 1718 0 4 -551 8 -1225 8 l-1226 0 -1714 -1715z"/>
<path d="M24278 1775 c-912 -913 -1683 -1686 -1715 -1717 l-58 -58 1235 0
1235 0 1710 1710 c941 940 1711 1713 1712 1717 2 5 -552 8 -1229 8 l-1233 0
-1657 -1660z"/>
<path d="M28597 1180 l-1182 -1180 1188 0 1187 0 0 1180 c0 649 -3 1180 -6
1180 -3 0 -538 -531 -1187 -1180z"/>
</g>
</svg>
