<?xml version="1.0" standalone="no"?>
<!DOCTYPE svg PUBLIC "-//W3C//DTD SVG 20010904//EN"
 "http://www.w3.org/TR/2001/REC-SVG-20010904/DTD/svg10.dtd">
<svg version="1.0" xmlns="http://www.w3.org/2000/svg"
 width="375.000000pt" height="564.000000pt" viewBox="0 0 375.000000 564.000000"
 preserveAspectRatio="xMidYMid meet">
<metadata>
Created by potrace 1.16, written by Peter Selinger 2001-2019
</metadata>
<g transform="translate(0.000000,564.000000) scale(0.100000,-0.100000)"
fill="#000000" stroke="none">
<path d="M0 5583 l0 -57 55 54 c30 30 55 56 55 57 0 2 -25 3 -55 3 l-55 0 0
-57z"/>
<path d="M206 5428 l-206 -213 0 -112 0 -113 33 0 c30 0 51 18 208 177 96 97
183 186 194 198 11 12 76 78 144 148 l124 127 -145 0 -146 0 -206 -212z"/>
<path d="M691 5321 c-171 -175 -311 -321 -311 -325 0 -4 64 -5 141 -4 l142 3
315 323 315 322 -146 0 -145 0 -311 -319z"/>
<path d="M1283 5324 c-169 -173 -309 -319 -311 -325 -2 -5 52 -9 135 -9 l139
0 149 153 c83 83 226 230 320 325 l169 172 -146 0 -146 0 -309 -316z"/>
<path d="M1871 5323 c-171 -175 -311 -321 -311 -325 0 -4 62 -8 138 -8 l138 0
318 325 318 325 -145 0 -145 0 -311 -317z"/>
<path d="M2740 5612 c-14 -15 -153 -157 -308 -317 -155 -159 -282 -293 -282
-297 0 -5 62 -8 138 -8 l139 0 103 108 c57 59 192 197 300 307 108 110 202
208 209 218 13 16 5 17 -130 17 -143 -1 -144 -1 -169 -28z"/>
<path d="M3299 5583 c-29 -32 -170 -177 -313 -323 l-260 -265 144 -3 143 -3
251 258 c138 142 280 288 315 326 l64 67 -145 0 -145 0 -54 -57z"/>
<path d="M3529 5213 l-214 -218 145 -3 145 -3 73 78 72 78 0 142 c0 79 -2 143
-4 143 -2 0 -100 -98 -217 -217z"/>
<path d="M1890 4681 c-82 -25 -140 -87 -167 -180 -47 -163 61 -341 208 -341
93 0 174 71 206 179 41 142 -37 305 -162 340 -45 12 -50 12 -85 2z"/>
<path d="M1088 4391 c-12 -15 -57 -83 -98 -149 -41 -67 -78 -121 -82 -122 -5
0 -56 35 -114 77 -100 72 -108 75 -120 58 -8 -10 -14 -24 -14 -30 0 -10 143
-121 200 -155 13 -8 13 -13 -3 -39 -40 -68 -1 -161 68 -161 28 0 40 8 66 40
30 36 34 39 48 25 14 -14 14 -18 -2 -43 -52 -80 -52 -75 -57 -455 l-5 -357
-185 -191 c-191 -197 -210 -226 -196 -284 11 -44 59 -85 99 -85 32 0 52 18
248 215 118 119 221 230 229 248 11 24 16 84 20 233 l5 201 93 -144 92 -145 6
-302 c6 -321 13 -370 57 -401 25 -18 70 -19 99 -4 11 6 28 29 38 52 16 39 17
68 10 387 -5 252 -10 352 -20 370 -7 14 -51 83 -98 155 -114 175 -111 165 -75
214 l30 41 134 -101 c74 -56 155 -123 180 -150 25 -27 54 -49 64 -49 10 0 116
-73 234 -162 119 -89 218 -163 220 -164 2 -2 -17 -27 -43 -56 -39 -45 -46 -60
-52 -111 -7 -57 -7 -58 -55 -83 -48 -24 -49 -25 -49 -72 0 -69 -28 -110 -81
-118 -31 -5 -60 -23 -123 -77 -44 -38 -82 -74 -84 -78 -2 -5 324 -9 733 -9
l736 0 -3 57 -3 57 -70 14 c-38 8 -72 16 -74 17 -2 2 4 61 14 130 9 70 13 130
8 134 -4 4 -52 44 -105 90 -54 45 -103 79 -109 76 -21 -14 -66 55 -89 136
l-23 81 -46 -6 c-25 -3 -78 -8 -118 -12 l-72 -7 -16 -48 c-9 -27 -20 -51 -23
-53 -4 -2 -36 -10 -72 -17 -36 -8 -69 -19 -75 -26 -8 -10 -68 31 -246 165
l-236 177 4 50 c3 35 -7 104 -36 230 -22 99 -61 274 -86 389 -52 236 -63 267
-108 315 -55 58 -73 61 -321 61 l-224 0 -24 -29z m167 -188 c-2 -7 -39 -62
-82 -121 -68 -95 -80 -108 -95 -98 -10 6 -18 14 -18 19 0 4 29 54 65 110 63
100 67 103 100 103 23 -1 34 -5 30 -13z m410 -511 c20 -90 35 -165 33 -168 -6
-5 -227 159 -228 169 0 5 32 54 72 109 65 92 73 99 79 77 4 -13 24 -97 44
-187z"/>
<path d="M402 1863 l3 -288 27 -57 c33 -70 87 -112 166 -129 116 -24 234 23
279 111 36 71 43 135 43 401 l0 249 -80 0 -80 0 0 -250 c0 -313 -8 -340 -105
-340 -42 0 -69 12 -81 37 -5 10 -11 137 -14 283 l-5 265 -78 3 -78 3 3 -288z"/>
<path d="M1020 1775 l0 -375 75 0 75 0 0 228 0 227 54 -120 c29 -66 74 -168
101 -227 l48 -108 84 0 83 0 -2 373 -3 372 -72 3 -73 3 -2 -168 c-2 -92 -2
-192 -1 -222 1 -33 -1 -51 -7 -45 -8 8 -100 207 -181 392 l-18 42 -81 0 -80 0
0 -375z"/>
<path d="M1640 1775 l0 -377 173 4 c153 3 176 5 212 25 56 30 99 78 132 148
26 57 28 68 28 200 0 139 0 141 -33 207 -33 68 -84 119 -147 148 -20 9 -84 15
-197 18 l-168 4 0 -377z m319 177 c57 -42 66 -66 66 -175 0 -156 -30 -196
-154 -205 l-71 -5 0 208 0 208 67 -6 c42 -4 77 -14 92 -25z"/>
<path d="M2277 2143 c-4 -3 -7 -172 -7 -375 l0 -368 245 0 245 0 0 85 0 85
-162 2 -163 3 -3 68 -3 67 146 0 145 0 0 75 0 75 -145 0 -146 0 3 63 3 62 158
3 157 3 0 79 0 80 -233 0 c-129 0 -237 -3 -240 -7z"/>
<path d="M2850 1775 l0 -376 78 3 77 3 2 130 1 130 70 3 c54 2 73 -1 90 -15
23 -19 42 -93 42 -167 0 -84 2 -86 92 -86 72 0 79 2 73 18 -4 9 -11 58 -16
109 -10 120 -23 164 -56 197 l-26 27 30 29 c36 35 53 88 53 164 0 98 -54 170
-145 195 -22 6 -113 11 -202 11 l-163 0 0 -375z m324 194 c20 -16 26 -29 26
-61 0 -65 -18 -78 -114 -78 l-81 0 3 80 4 80 67 0 c54 0 74 -4 95 -21z"/>
<path d="M486 1280 c-64 -19 -98 -77 -98 -165 0 -99 48 -167 120 -169 66 -1
114 39 124 104 3 22 -1 25 -33 28 -32 3 -37 0 -43 -22 -7 -29 -37 -41 -66 -26
-46 25 -43 150 4 171 27 13 66 -2 66 -26 0 -11 12 -15 41 -15 37 0 40 2 34 23
-22 73 -87 115 -149 97z"/>
<path d="M741 1273 c-50 -26 -74 -64 -79 -127 -9 -109 24 -175 98 -197 33 -10
44 -9 76 8 52 27 78 79 77 158 -1 125 -85 202 -172 158z m79 -83 c15 -15 20
-33 20 -75 0 -56 -22 -95 -53 -95 -56 0 -79 127 -31 174 21 21 40 20 64 -4z"/>
<path d="M1283 1283 c-34 -6 -73 -59 -73 -98 0 -45 33 -81 95 -103 54 -19 69
-44 36 -62 -26 -13 -57 1 -66 30 -4 14 -15 20 -35 20 -37 0 -44 -12 -30 -54
18 -56 78 -83 143 -65 47 13 77 51 77 100 0 49 -30 83 -95 107 -55 19 -67 45
-23 50 19 2 30 -3 38 -17 7 -14 21 -21 40 -21 25 0 30 4 30 25 0 53 -72 99
-137 88z"/>
<path d="M2313 1278 c-87 -23 -127 -184 -69 -272 38 -58 114 -77 168 -42 23
15 58 79 58 106 0 6 -16 10 -35 10 -28 0 -37 -5 -44 -24 -9 -21 -29 -36 -52
-36 -5 0 -18 9 -29 20 -15 15 -20 33 -20 75 0 42 5 60 20 75 11 11 25 20 31
20 20 0 49 -21 49 -35 0 -11 12 -15 40 -15 22 0 40 2 40 5 0 2 -7 23 -16 45
-23 57 -80 84 -141 68z"/>
<path d="M2933 1279 c-18 -5 -44 -25 -60 -46 -25 -33 -28 -44 -28 -119 0 -95
16 -126 78 -157 30 -15 43 -16 76 -7 104 28 133 206 48 295 -36 37 -68 47
-114 34z m67 -89 c43 -43 20 -170 -30 -170 -47 0 -78 97 -49 153 22 42 48 48
79 17z"/>
<path d="M950 1116 l0 -166 30 0 30 0 1 68 c1 37 1 80 0 97 -2 41 9 25 54 -78
l38 -88 36 3 c20 2 35 6 34 11 -2 4 -3 77 -3 162 l0 155 -30 0 -29 0 -3 -96
-3 -97 -42 94 c-40 91 -42 94 -77 97 l-36 3 0 -165z"/>
<path d="M1447 1273 c-4 -3 -7 -21 -7 -40 0 -32 1 -33 40 -33 l40 0 0 -125 0
-125 35 0 35 0 0 125 0 125 40 0 40 0 0 40 0 40 -108 0 c-60 0 -112 -3 -115
-7z"/>
<path d="M1694 1267 c-2 -7 -3 -80 -2 -162 l3 -150 35 0 35 0 0 55 c0 54 1 55
31 58 39 4 52 -12 56 -68 3 -43 4 -45 37 -48 l34 -3 -5 59 c-3 32 -11 68 -18
79 -11 17 -10 24 3 44 27 37 22 86 -12 120 -28 27 -34 29 -111 29 -57 0 -82
-4 -86 -13z m151 -97 c0 -22 -4 -25 -40 -25 -36 0 -40 3 -41 25 -1 36 1 38 43
31 32 -5 38 -10 38 -31z"/>
<path d="M1957 1274 c-11 -11 -8 -204 3 -245 19 -66 75 -97 144 -78 63 17 76
51 76 202 l0 127 -35 0 -34 0 -3 -121 c-3 -103 -6 -124 -20 -133 -13 -8 -23
-8 -35 0 -15 9 -19 31 -23 130 l-5 119 -30 3 c-17 2 -34 0 -38 -4z"/>
<path d="M2480 1240 l0 -40 40 0 40 0 0 -125 0 -125 35 0 35 0 0 125 0 125 40
0 40 0 0 40 0 40 -115 0 -115 0 0 -40z"/>
<path d="M2737 1273 c-4 -3 -7 -78 -7 -165 l0 -158 35 0 35 0 0 165 0 165 -28
0 c-16 0 -32 -3 -35 -7z"/>
<path d="M3130 1115 l0 -166 33 3 32 3 5 87 5 86 39 -89 39 -90 36 3 36 3 0
160 0 160 -32 3 -32 3 -3 -96 -3 -96 -41 93 c-40 91 -42 93 -78 96 l-36 3 0
-166z"/>
<path d="M0 578 l0 -62 55 54 c30 30 55 58 55 62 0 4 -25 8 -55 8 l-55 0 0
-62z"/>
<path d="M208 426 l-208 -214 0 -106 0 -106 43 0 42 0 301 307 c165 170 304
314 308 321 6 9 -24 12 -136 12 l-143 -1 -207 -213z"/>
<path d="M742 370 c-145 -148 -283 -292 -308 -319 l-46 -51 143 0 142 0 277
282 c152 156 291 300 309 321 l33 37 -143 0 -144 -1 -263 -269z"/>
<path d="M1485 528 c-60 -62 -201 -206 -314 -320 l-204 -208 150 0 150 0 59
63 c32 34 168 174 301 311 134 136 243 252 243 257 0 5 -62 9 -138 9 l-138 0
-109 -112z"/>
<path d="M1874 323 l-311 -318 143 -3 142 -3 209 213 c278 283 397 408 401
419 2 5 -54 9 -135 9 l-138 0 -311 -317z"/>
<path d="M2462 323 l-310 -318 142 -3 141 -3 308 313 c169 172 307 316 307
320 0 5 -62 8 -139 8 l-139 0 -310 -317z"/>
<path d="M3052 323 l-310 -318 141 -3 142 -3 307 313 c169 172 308 316 308
321 0 4 -63 7 -139 7 l-139 0 -310 -317z"/>
<path d="M3539 219 l-206 -214 140 -3 141 -3 68 69 69 68 -3 148 -3 148 -206
-213z"/>
</g>
</svg>
